<svg width="33" height="32" viewBox="0 0 33 32" fill="none" xmlns="http://www.w3.org/2000/svg">
<path d="M15.3011 4.48313C15.668 3.73997 16.7277 3.73997 17.0945 4.48313L20.0854 10.5423C20.2309 10.8371 20.5121 11.0416 20.8375 11.0891L27.5274 12.067C28.3473 12.1868 28.6741 13.1946 28.0805 13.7728L23.2413 18.4862C23.0054 18.7159 22.8978 19.0471 22.9534 19.3716L24.0953 26.0291C24.2354 26.8461 23.3778 27.4691 22.6442 27.0833L16.6633 23.938C16.3719 23.7847 16.0238 23.7847 15.7324 23.938L9.75147 27.0833C9.01784 27.4691 8.16029 26.8461 8.30041 26.0291L9.44226 19.3716C9.49792 19.0471 9.39025 18.7159 9.15438 18.4862L4.31518 13.7728C3.72159 13.1946 4.04837 12.1868 4.86829 12.067L11.5582 11.0891C11.8836 11.0416 12.1647 10.8371 12.3103 10.5423L15.3011 4.48313Z" fill="#FF8718"/>
</svg>
