<svg width="32" height="33" viewBox="0 0 32 33" fill="none" xmlns="http://www.w3.org/2000/svg">
<path d="M8.6561 3.6665C8.1331 3.6665 7.6171 3.8545 7.1871 4.1975L7.1251 4.2285L7.0941 4.2605L3.9691 7.4795L4.0001 7.5095C3.54157 7.92586 3.21669 8.46874 3.06647 9.0696C2.91626 9.67046 2.94745 10.3024 3.1561 10.8855C3.1601 10.8935 3.1521 10.9085 3.1561 10.9165C4.0041 13.3425 6.1721 18.0265 10.4061 22.2605C14.6561 26.5105 19.4021 28.5925 21.7501 29.5105H21.7811C22.3695 29.705 22.9983 29.7439 23.6062 29.6233C24.2141 29.5027 24.7804 29.2269 25.2501 28.8225L28.4061 25.6665C29.2341 24.8385 29.2341 23.4005 28.4061 22.5725L24.3441 18.5105L24.3121 18.4475C23.4841 17.6195 22.0161 17.6195 21.1871 18.4475L19.1871 20.4475C17.6862 19.7264 16.3056 18.7779 15.0941 17.6355C13.4571 16.0725 12.6211 14.2755 12.3131 13.5725L14.3131 11.5725C15.1531 10.7325 15.1681 9.3345 14.2811 8.5105L14.3121 8.4785L14.2191 8.3855L10.2191 4.2605L10.1881 4.2295L10.1251 4.1975C9.71006 3.85861 9.1919 3.67131 8.6561 3.6665ZM8.6561 5.6665C8.73785 5.67125 8.81534 5.70452 8.8751 5.7605L12.8751 9.8535L12.9691 9.9475C12.9611 9.9395 13.0271 10.0455 12.9061 10.1665L10.4061 12.6665L9.9371 13.1045L10.1571 13.7285C10.1571 13.7285 11.3051 16.8035 13.7191 19.1045L13.9381 19.2915C16.2611 21.4125 19.0001 22.5725 19.0001 22.5725L19.6251 22.8545L22.5941 19.8845C22.7661 19.7135 22.7341 19.7135 22.9061 19.8845L27.0001 23.9805C27.1721 24.1515 27.1721 24.0895 27.0001 24.2605L23.9371 27.3235C23.4771 27.7185 22.9881 27.8005 22.4071 27.6055C20.1411 26.7145 15.7381 24.7805 11.8121 20.8555C7.8551 16.8975 5.7891 12.4095 5.0321 10.2305C4.8791 9.8235 4.9881 9.2225 5.3441 8.9175L5.4061 8.8545L8.4381 5.7615C8.49719 5.70558 8.57392 5.67199 8.6551 5.6665H8.6561Z" fill="#ED1CA6"/>
</svg>
