<svg width="20" height="20" viewBox="0 0 20 20" fill="none" xmlns="http://www.w3.org/2000/svg">
<g clip-path="url(#clip0_69_909)">
<path d="M8.22817 9.39998C8.64321 9.19121 8.95698 8.95869 9.172 8.70742C9.55453 8.25488 9.7433 7.65483 9.7433 6.91102C9.7433 6.18721 9.55453 5.56841 9.177 5.04962C8.54695 4.20455 7.48061 3.77201 5.97299 3.74951H0V15.9418H5.56921C6.19676 15.9418 6.77806 15.888 7.3156 15.778C7.85314 15.6667 8.31818 15.463 8.71196 15.1654C9.06199 14.9067 9.35452 14.5854 9.58704 14.2066C9.95457 13.6341 10.1383 12.9853 10.1383 12.2627C10.1383 11.5627 9.97707 10.9664 9.65704 10.4763C9.33327 9.98627 8.85823 9.62749 8.22817 9.39998ZM2.46395 5.86719H5.15417C5.74547 5.86719 6.23301 5.93094 6.61554 6.0572C7.05808 6.24097 7.27935 6.61475 7.27935 7.18479C7.27935 7.69608 7.11058 8.05361 6.77681 8.25488C6.44053 8.45615 6.00424 8.55741 5.4692 8.55741H2.46395V5.86719ZM6.71805 13.6116C6.42053 13.7553 6.00174 13.8266 5.46545 13.8266H2.46395V10.5751H5.5067C6.03675 10.5788 6.44928 10.6488 6.7443 10.7801C7.26935 11.0176 7.53062 11.4526 7.53062 12.0889C7.53062 12.839 7.2606 13.344 6.71805 13.6116Z" fill="white"/>
<path d="M18.0777 4.31824H12.781V5.83586H18.0777V4.31824Z" fill="white"/>
<path d="M19.9178 10.3076C19.8078 9.60125 19.5653 8.97995 19.1878 8.44366C18.774 7.83611 18.2489 7.39107 17.6101 7.1098C16.9738 6.82728 16.2575 6.68601 15.46 6.68726C14.1211 6.68726 13.0335 7.10605 12.1922 7.93736C11.3534 8.77118 10.9333 9.97003 10.9333 11.5327C10.9333 13.199 11.3971 14.4029 12.3297 15.1417C13.2585 15.8818 14.3311 16.2505 15.5487 16.2505C17.0226 16.2505 18.1689 15.8117 18.9878 14.9367C19.5115 14.3841 19.8078 13.8403 19.8728 13.3065H17.4326C17.2914 13.5703 17.1276 13.7766 16.9401 13.9266C16.6001 14.2016 16.1575 14.3391 15.615 14.3391C15.0987 14.3391 14.6612 14.2254 14.2961 13.9991C13.6936 13.6366 13.3785 13.0015 13.3385 12.0977H19.9978C20.0078 11.3189 19.9828 10.7201 19.9178 10.3076ZM13.3985 10.5413C13.4861 9.95503 13.6986 9.48999 14.0361 9.14621C14.3736 8.80368 14.8512 8.63117 15.4625 8.62992C16.0263 8.62992 16.4975 8.79118 16.8813 9.11496C17.2601 9.44124 17.4739 9.91502 17.5176 10.5413H13.3985Z" fill="white"/>
</g>
<defs>
<clipPath id="clip0_69_909">
<rect width="20" height="20" fill="white"/>
</clipPath>
</defs>
</svg>
