<svg width="1320" height="312" viewBox="0 0 1320 312" fill="none" xmlns="http://www.w3.org/2000/svg">
<mask id="mask0_1247_487" style="mask-type:alpha" maskUnits="userSpaceOnUse" x="0" y="0" width="1320" height="312">
<rect width="1320" height="312" rx="8" fill="#242424"/>
</mask>
<g mask="url(#mask0_1247_487)">
<g opacity="0.2">
<rect x="190" y="64" width="5" height="5" rx="2.5" transform="rotate(90 190 64)" fill="white"/>
<rect x="190" y="85" width="5" height="5" rx="2.5" transform="rotate(90 190 85)" fill="white"/>
<rect x="190" y="106" width="5" height="5" rx="2.5" transform="rotate(90 190 106)" fill="white"/>
<rect x="190" y="127" width="5" height="5" rx="2.5" transform="rotate(90 190 127)" fill="white"/>
<rect x="190" y="148" width="5" height="5" rx="2.5" transform="rotate(90 190 148)" fill="white"/>
<rect x="190" y="169" width="5" height="5" rx="2.5" transform="rotate(90 190 169)" fill="white"/>
<rect x="190" y="190" width="5" height="5" rx="2.5" transform="rotate(90 190 190)" fill="white"/>
<rect x="190" y="211" width="5" height="5" rx="2.5" transform="rotate(90 190 211)" fill="white"/>
<rect x="169" y="64" width="5" height="5" rx="2.5" transform="rotate(90 169 64)" fill="white"/>
<rect x="169" y="85" width="5" height="5" rx="2.5" transform="rotate(90 169 85)" fill="white"/>
<rect x="169" y="106" width="5" height="5" rx="2.5" transform="rotate(90 169 106)" fill="white"/>
<rect x="169" y="127" width="5" height="5" rx="2.5" transform="rotate(90 169 127)" fill="white"/>
<rect x="169" y="148" width="5" height="5" rx="2.5" transform="rotate(90 169 148)" fill="white"/>
<rect x="169" y="169" width="5" height="5" rx="2.5" transform="rotate(90 169 169)" fill="white"/>
<rect x="169" y="190" width="5" height="5" rx="2.5" transform="rotate(90 169 190)" fill="white"/>
<rect x="169" y="211" width="5" height="5" rx="2.5" transform="rotate(90 169 211)" fill="white"/>
<rect x="148" y="64" width="5" height="5" rx="2.5" transform="rotate(90 148 64)" fill="white"/>
<rect x="148" y="85" width="5" height="5" rx="2.5" transform="rotate(90 148 85)" fill="white"/>
<rect x="148" y="106" width="5" height="5" rx="2.5" transform="rotate(90 148 106)" fill="white"/>
<rect x="148" y="127" width="5" height="5" rx="2.5" transform="rotate(90 148 127)" fill="white"/>
<rect x="148" y="148" width="5" height="5" rx="2.5" transform="rotate(90 148 148)" fill="white"/>
<rect x="148" y="169" width="5" height="5" rx="2.5" transform="rotate(90 148 169)" fill="white"/>
<rect x="148" y="190" width="5" height="5" rx="2.5" transform="rotate(90 148 190)" fill="white"/>
<rect x="148" y="211" width="5" height="5" rx="2.5" transform="rotate(90 148 211)" fill="white"/>
<rect x="127" y="64" width="5" height="5" rx="2.5" transform="rotate(90 127 64)" fill="white"/>
<rect x="127" y="85" width="5" height="5" rx="2.5" transform="rotate(90 127 85)" fill="white"/>
<rect x="127" y="106" width="5" height="5" rx="2.5" transform="rotate(90 127 106)" fill="white"/>
<rect x="127" y="127" width="5" height="5" rx="2.5" transform="rotate(90 127 127)" fill="white"/>
<rect x="127" y="148" width="5" height="5" rx="2.5" transform="rotate(90 127 148)" fill="white"/>
<rect x="127" y="169" width="5" height="5" rx="2.5" transform="rotate(90 127 169)" fill="white"/>
<rect x="127" y="190" width="5" height="5" rx="2.5" transform="rotate(90 127 190)" fill="white"/>
<rect x="127" y="211" width="5" height="5" rx="2.5" transform="rotate(90 127 211)" fill="white"/>
</g>
<g opacity="0.2">
<rect x="1110" y="248" width="5" height="5" rx="2.5" transform="rotate(-180 1110 248)" fill="#ED1CA6"/>
<rect x="1089" y="248" width="5" height="5" rx="2.5" transform="rotate(-180 1089 248)" fill="#ED1CA6"/>
<rect x="1068" y="248" width="5" height="5" rx="2.5" transform="rotate(-180 1068 248)" fill="#ED1CA6"/>
<rect x="1047" y="248" width="5" height="5" rx="2.5" transform="rotate(-180 1047 248)" fill="#ED1CA6"/>
<rect x="1026" y="248" width="5" height="5" rx="2.5" transform="rotate(-180 1026 248)" fill="#ED1CA6"/>
<rect x="1005" y="248" width="5" height="5" rx="2.5" transform="rotate(-180 1005 248)" fill="#ED1CA6"/>
<rect x="984" y="248" width="5" height="5" rx="2.5" transform="rotate(-180 984 248)" fill="#ED1CA6"/>
<rect x="963" y="248" width="5" height="5" rx="2.5" transform="rotate(-180 963 248)" fill="#ED1CA6"/>
<rect x="1110" y="227" width="5" height="5" rx="2.5" transform="rotate(-180 1110 227)" fill="#ED1CA6"/>
<rect x="1089" y="227" width="5" height="5" rx="2.5" transform="rotate(-180 1089 227)" fill="#ED1CA6"/>
<rect x="1068" y="227" width="5" height="5" rx="2.5" transform="rotate(-180 1068 227)" fill="#ED1CA6"/>
<rect x="1047" y="227" width="5" height="5" rx="2.5" transform="rotate(-180 1047 227)" fill="#ED1CA6"/>
<rect x="1026" y="227" width="5" height="5" rx="2.5" transform="rotate(-180 1026 227)" fill="#ED1CA6"/>
<rect x="1005" y="227" width="5" height="5" rx="2.5" transform="rotate(-180 1005 227)" fill="#ED1CA6"/>
<rect x="984" y="227" width="5" height="5" rx="2.5" transform="rotate(-180 984 227)" fill="#ED1CA6"/>
<rect x="963" y="227" width="5" height="5" rx="2.5" transform="rotate(-180 963 227)" fill="#ED1CA6"/>
<rect x="1110" y="206" width="5" height="5" rx="2.5" transform="rotate(-180 1110 206)" fill="#ED1CA6"/>
<rect x="1089" y="206" width="5" height="5" rx="2.5" transform="rotate(-180 1089 206)" fill="#ED1CA6"/>
<rect x="1068" y="206" width="5" height="5" rx="2.5" transform="rotate(-180 1068 206)" fill="#ED1CA6"/>
<rect x="1047" y="206" width="5" height="5" rx="2.5" transform="rotate(-180 1047 206)" fill="#ED1CA6"/>
<rect x="1026" y="206" width="5" height="5" rx="2.5" transform="rotate(-180 1026 206)" fill="#ED1CA6"/>
<rect x="1005" y="206" width="5" height="5" rx="2.5" transform="rotate(-180 1005 206)" fill="#ED1CA6"/>
<rect x="984" y="206" width="5" height="5" rx="2.5" transform="rotate(-180 984 206)" fill="#ED1CA6"/>
<rect x="963" y="206" width="5" height="5" rx="2.5" transform="rotate(-180 963 206)" fill="#ED1CA6"/>
<rect x="1110" y="185" width="5" height="5" rx="2.5" transform="rotate(-180 1110 185)" fill="#ED1CA6"/>
<rect x="1089" y="185" width="5" height="5" rx="2.5" transform="rotate(-180 1089 185)" fill="#ED1CA6"/>
<rect x="1068" y="185" width="5" height="5" rx="2.5" transform="rotate(-180 1068 185)" fill="#ED1CA6"/>
<rect x="1047" y="185" width="5" height="5" rx="2.5" transform="rotate(-180 1047 185)" fill="#ED1CA6"/>
<rect x="1026" y="185" width="5" height="5" rx="2.5" transform="rotate(-180 1026 185)" fill="#ED1CA6"/>
<rect x="1005" y="185" width="5" height="5" rx="2.5" transform="rotate(-180 1005 185)" fill="#ED1CA6"/>
<rect x="984" y="185" width="5" height="5" rx="2.5" transform="rotate(-180 984 185)" fill="#ED1CA6"/>
<rect x="963" y="185" width="5" height="5" rx="2.5" transform="rotate(-180 963 185)" fill="#ED1CA6"/>
</g>
<circle opacity="0.03" cx="148.5" cy="403.5" r="264.5" fill="white"/>
<circle opacity="0.03" cx="1170" cy="64" r="38" fill="white"/>
</g>
</svg>
